<svg width="41" height="41" viewBox="0 0 41 41" fill="none" xmlns="http://www.w3.org/2000/svg">
<g clip-path="url(#clip0_25_19)">
<path d="M11.2681 14.0486C12.1954 13.0743 13.4255 12.5053 14.8705 12.5053C17.6857 12.5053 19.5522 14.5607 19.9093 17.6399C20.0251 18.6398 20.024 20.0496 20.0228 21.6825C20.0227 21.85 20.0226 22.0198 20.0226 22.1917V28.3089H16.1512V23.7844C16.1512 23.7844 16.1433 19.9122 16.1197 19.1885C16.0158 16.0365 14.1498 14.056 11.2677 14.0539C10.3982 14.9726 9.93227 16.0958 9.86357 17.8133C9.85412 18.0528 9.8565 18.9019 9.85963 20.021C9.86125 20.6008 9.86307 21.2531 9.86357 21.9307C9.86643 24.8797 9.86357 28.3095 9.86357 28.3095H5.99217V21.3465C5.99217 21.1079 5.98782 20.8673 5.98345 20.6257C5.97467 20.1398 5.96582 19.6501 5.99217 19.1653C6.03591 18.357 6.17573 17.5624 6.5529 16.8243C7.41624 15.1332 9.18521 14.0444 11.0711 14.0444C11.137 14.0444 11.2029 14.0459 11.2681 14.0485V14.0486Z" fill="#CE96F5"/>
<path d="M35.2813 22.0241C35.3076 21.5392 35.2987 21.0495 35.29 20.5636C35.2856 20.3221 35.2813 20.0815 35.2813 19.8429V12.8798H31.4099C31.4099 12.8798 31.407 16.3097 31.4099 19.2587C31.4104 19.9362 31.4122 20.5885 31.4138 21.1683C31.4169 22.2874 31.4193 23.1365 31.4099 23.376C31.3412 25.0936 30.8752 26.2168 30.0057 27.1355C27.1237 27.1335 25.2578 25.1528 25.1538 22.0009C25.1302 21.2772 25.1202 19.4813 25.1202 17.4013V12.8769L21.2517 12.8804V18.9976C21.2517 19.1695 21.2515 19.3393 21.2514 19.5068C21.2502 21.1397 21.2492 22.5494 21.365 23.5494C21.7213 26.6286 23.5878 28.684 26.403 28.684C27.8481 28.684 29.0782 28.1149 30.0055 27.1407C30.0706 27.1432 30.1365 27.1448 30.2024 27.1448C32.0882 27.1448 33.8572 26.056 34.7206 24.3649C35.0977 23.6267 35.2375 22.8322 35.2813 22.0239L35.2813 22.0241Z" fill="#CE96F5"/>
</g>
<defs>
<clipPath id="clip0_25_19">
<rect width="40.5545" height="40.5545" fill="white" transform="translate(0.359467 0.3174)"/>
</clipPath>
</defs>
</svg>
