<svg width="70" height="70" viewBox="0 0 70 70" fill="none" xmlns="http://www.w3.org/2000/svg">
<g clip-path="url(#clip0_3_28)">
<path d="M18.8291 23.701C20.4297 22.0194 22.5528 21.0371 25.0471 21.0371C29.9063 21.0371 33.128 24.585 33.7444 29.8998C33.9442 31.6258 33.9424 34.0592 33.9404 36.8777C33.9401 37.1668 33.94 37.4599 33.94 37.7567V48.3153H27.2577V40.5058C27.2577 40.5058 27.2441 33.822 27.2032 32.5729C27.0239 27.1324 23.8031 23.7138 18.8284 23.7102C17.3276 25.2959 16.5234 27.2347 16.4048 30.1992C16.3885 30.6127 16.3926 32.0782 16.398 34.0098C16.4008 35.0106 16.4039 36.1366 16.4048 37.306C16.4097 42.3963 16.4048 48.3164 16.4048 48.3164H9.72245V36.2978C9.72245 35.8859 9.71494 35.4706 9.70742 35.0537C9.69226 34.2149 9.67698 33.3697 9.72245 32.5328C9.79795 31.1377 10.0393 29.7662 10.6903 28.4921C12.1805 25.5732 15.2339 23.6938 18.489 23.6938C18.6027 23.6938 18.7165 23.6964 18.8291 23.7008V23.701Z" fill="#820AD1"/>
<path d="M60.2775 37.4673C60.323 36.6304 60.3077 35.7851 60.2926 34.9465C60.285 34.5295 60.2775 34.1142 60.2775 33.7024V21.6837H53.5953C53.5953 21.6837 53.5903 27.6038 53.5953 32.694C53.5961 33.8635 53.5992 34.9893 53.602 35.9901C53.6074 37.9218 53.6115 39.3874 53.5953 39.8009C53.4767 42.7655 52.6725 44.7042 51.1716 46.29C46.1971 46.2865 42.9763 42.8677 42.7969 37.4273C42.7561 36.1781 42.7388 33.0782 42.7388 29.488V21.6786L36.0615 21.6847V32.2433C36.0615 32.5401 36.0612 32.8331 36.0611 33.1223C36.059 35.9408 36.0572 38.3741 36.2571 40.1002C36.8721 45.4151 40.0938 48.9629 44.953 48.9629C47.4474 48.9629 49.5705 47.9806 51.1711 46.299C51.2836 46.3034 51.3973 46.306 51.511 46.306C54.7661 46.306 57.8196 44.4267 59.3098 41.5078C59.9608 40.2336 60.2021 38.8622 60.2776 37.467L60.2775 37.4673Z" fill="#820AD1"/>
</g>
<defs>
<clipPath id="clip0_3_28">
<rect width="70" height="70" fill="white"/>
</clipPath>
</defs>
</svg>
