<svg width="253" height="38" viewBox="0 0 253 38" fill="none" xmlns="http://www.w3.org/2000/svg">
<path d="M181.12 3C179.2 3 177.92 3 176 3.32C166.72 6.84 164.28 13.652 164.483 19.4785C164.626 26.948 168.046 30.1211 173.12 33.4C175.664 34.1388 175.52 35 180.16 35C184.8 35 185.314 33.9933 187.52 30.52V20.28C187.52 20.28 187.84 16.12 185.6 13.88" stroke="#6FADC6" stroke-width="5.79524" stroke-linejoin="round"/>
<path d="M134.48 5.56904C132.474 5.76319 131.504 6.21621 130.986 7.18695C130.339 8.41656 130.403 8.48128 131.762 8.1577C132.604 7.89883 134.092 7.70468 135.063 7.70468C136.163 7.70468 137.069 7.18695 137.522 6.41036C137.91 5.69848 137.975 5.18075 137.716 5.24546C137.457 5.31018 135.969 5.43961 134.48 5.56904Z" fill="#004A8F"/>
<path d="M4.53014 10.8758C3.81826 11.1994 2.52394 12.2348 1.61791 13.2056C0.258865 14.6293 0 15.5354 0 18.8359C0 22.46 0.129433 22.8483 2.3945 24.9192C4.53014 26.8607 5.24202 27.1196 8.41312 27.1196C10.8076 27.1196 11.9725 26.8607 12.0372 26.2783C12.0372 25.89 12.1667 24.4015 12.2961 23.0424C12.555 20.7774 12.4902 20.7127 11.2606 21.3598C7.63652 23.3013 3.81826 19.6772 6.47163 16.765C7.70124 15.4059 10.3546 15.0176 11.0018 16.1178C11.9078 17.6063 12.3608 16.5708 11.9725 13.6586L11.6489 10.6169L8.7367 10.4875C7.11879 10.4228 5.24202 10.6169 4.53014 10.8758Z" fill="#004A8F"/>
<path d="M17.344 11.5877C12.4902 14.4999 11.9078 21.1657 16.1144 24.9839C18.1206 26.796 18.8972 27.1196 21.7447 27.1196C27.3103 27.1196 30.7402 23.8838 30.7402 18.577C30.6755 12.1054 23.039 8.09298 17.344 11.5877ZM23.8803 16.5061C25.9512 18.577 24.398 22.2658 21.68 21.8128C19.4149 21.4893 18.4441 18.577 20.062 16.765C21.4858 15.2118 22.5213 15.1471 23.8803 16.5061Z" fill="#004A8F"/>
<path d="M33.6525 11.0699C33.3936 11.7818 30.7402 26.2783 30.7402 26.9254C30.7402 27.0549 32.0346 27.1196 33.5878 27.1196H36.4353L37.0177 22.7189L37.6002 18.3829L38.8945 22.5894C39.9947 26.2783 40.383 26.796 41.8714 26.9901C43.4246 27.1843 43.6835 26.9254 44.719 23.4307C46.2721 18.3182 46.9193 17.8004 46.9193 21.7481C46.9193 26.5371 47.3076 27.1196 50.2198 27.1196C52.6791 27.1196 52.7438 27.0549 52.6791 24.9839C52.6791 23.8838 52.1613 20.1302 51.5789 16.765L50.4787 10.6169L47.5018 10.4228L44.5248 10.2286L43.2305 14.5646L42.0009 18.8359L40.836 14.5646L39.6711 10.2933H36.8236C35.0762 10.2933 33.8466 10.6169 33.6525 11.0699Z" fill="#004A8F"/>
<path d="M53.844 10.7463C53.5851 10.9405 53.3909 14.7588 53.3909 19.1595V27.1196H56.2385C59.086 27.1196 59.1507 27.1196 59.3448 24.6604C59.539 22.3306 59.6037 22.2658 62.5159 21.9423C66.5931 21.4245 67.6285 20.4538 67.6285 16.9591C67.6285 13.1409 66.7872 11.7818 63.875 10.9405C61.2216 10.2286 54.4911 10.0345 53.844 10.7463ZM61.4158 15.2118C63.2278 15.9237 62.2571 18.0593 60.1214 18.0593C59.992 18.0593 59.8626 17.3474 59.8626 16.4414C59.8626 14.694 59.9273 14.6293 61.4158 15.2118Z" fill="#004A8F"/>
<path d="M68.9229 16.8297C68.9229 23.1719 68.9876 23.366 70.7996 25.2428C72.4822 26.8607 73.1941 27.1196 76.3652 27.1196C79.5363 27.1196 80.2482 26.8607 81.9308 25.2428C83.7429 23.366 83.8076 23.1719 83.8076 16.8297V10.2933H80.8954H78.0478L77.8537 15.9237C77.6596 21.2951 77.5948 21.6187 76.2358 21.8128C74.812 22.007 74.7473 21.8776 74.7473 16.1825V10.2933H71.8351H68.9229V16.8297Z" fill="#004A8F"/>
<path d="M84.9078 10.6816C84.6489 10.9405 84.4548 12.2995 84.4548 13.6586C84.4548 15.8589 84.6489 16.1178 86.0727 16.1178C87.6906 16.1178 87.6906 16.1825 87.6906 21.6187V27.1196H90.9264H94.1622V21.6187C94.1622 16.1178 94.1622 16.1178 95.8448 16.1178C97.3333 16.1178 97.4627 15.9237 97.2686 13.335L97.0744 10.6169L91.25 10.4228C88.0142 10.358 85.1666 10.4228 84.9078 10.6816Z" fill="#004A8F"/>
<path d="M100.957 11.0699C100.763 11.5229 99.4689 15.2118 98.0452 19.2242C96.6214 23.3013 95.4565 26.7313 95.4565 26.8607C95.4565 26.9901 96.945 27.1196 98.6924 27.1196C101.152 27.1196 101.928 26.8607 101.928 26.1488C101.928 25.4369 102.64 25.1781 104.517 25.1781C106.394 25.1781 107.105 25.4369 107.105 26.1488C107.105 26.8607 107.882 27.1196 110.341 27.1196H113.512L110.988 19.8066C109.629 15.8589 108.27 12.0407 108.076 11.3935C107.688 10.5522 106.847 10.2933 104.452 10.2933C102.446 10.2933 101.152 10.6169 100.957 11.0699ZM105.164 19.8066C105.164 20.7774 104.776 21.2951 104.129 21.2951C103.352 21.2951 103.158 20.9068 103.481 19.8066C103.676 19.03 103.87 17.9299 103.87 17.4121C103.934 15.7942 105.164 18.124 105.164 19.8066Z" fill="#004A8F"/>
<path d="M116.36 11.5877C113.448 13.335 112.089 16.3119 112.477 19.8066C112.801 22.9777 115.324 26.2135 117.913 26.8607C118.819 27.1196 119.402 27.7667 119.402 28.4786C119.402 29.1258 119.855 29.7082 120.372 29.7082C120.89 29.7082 121.343 30.0318 121.343 30.4201C121.343 30.8731 120.566 31.0673 119.402 30.8731C118.043 30.679 117.46 30.8731 117.46 31.4556C117.46 32.1027 118.172 32.2969 120.243 32.1674C122.637 31.9733 122.961 31.7791 123.155 30.2907C123.285 29.1258 122.961 28.4139 121.861 27.8962C120.437 27.249 120.502 27.1843 122.637 27.1196C123.867 27.0549 126.456 27.0549 128.332 27.1196C130.986 27.1843 131.698 26.9901 131.698 26.2135C131.698 25.4369 132.345 25.1781 134.286 25.1781C136.163 25.1781 136.875 25.4369 136.875 26.1488C136.875 26.8607 137.652 27.1196 140.175 27.1196C143.929 27.1196 143.929 28.2197 140.111 17.4121L137.716 10.6169L134.48 10.4228L131.245 10.2286L128.397 18.124C125.744 25.5664 125.55 25.89 125.355 23.366C125.161 20.8421 125.097 20.7127 123.608 21.4245C120.049 23.0424 117.072 20.0655 119.143 16.9591C120.178 15.3412 121.99 15.0823 123.996 16.1178C125.097 16.765 125.226 16.5708 125.226 13.9174C125.226 11.9112 124.902 10.9405 124.191 10.6816C122.184 9.90504 118.366 10.2933 116.36 11.5877ZM135.192 19.483C135.516 21.0362 135.386 21.2951 134.286 21.2951C132.798 21.2951 132.798 21.2951 133.639 18.9653C134.416 16.9591 134.61 17.0238 135.192 19.483Z" fill="#004A8F"/>
<path d="M146.841 10.9405C144.188 11.976 142.052 15.3412 142.052 18.4476C142.052 24.2073 145.094 27.1196 151.177 27.1196C154.025 27.1196 154.737 26.8607 156.613 24.9839C160.626 20.9715 160.173 14.7588 155.707 11.7818C153.442 10.2286 149.495 9.84032 146.841 10.9405ZM152.795 17.0885C153.766 18.577 153.766 18.8359 152.795 20.3244C150.983 23.1072 147.877 22.0717 147.877 18.577C147.877 15.4706 151.113 14.4999 152.795 17.0885Z" fill="#004A8F"/>
<path d="M181.12 26.04C178.88 26.04 176.64 25.4 175.04 23.48C173.44 21.56 173.44 19.64 173.44 18.36C173.44 17.08 174.72 15.16 175.68 14.2C176.64 13.24 180.16 12.28 180.16 12.28L184.32 12.92L185.92 14.2" stroke="#004A8F" stroke-width="5.79524" stroke-linejoin="round"/>
<path d="M200.257 27.5116C199.076 27.5116 198.03 27.2801 197.119 26.817C196.209 26.3539 195.498 25.6991 194.987 24.8528C194.492 23.9904 194.245 23.0004 194.245 21.8825V10.8399C194.245 10.76 194.269 10.6962 194.317 10.6482C194.381 10.5844 194.452 10.5524 194.532 10.5524H196.736C196.816 10.5524 196.88 10.5844 196.928 10.6482C196.992 10.6962 197.024 10.76 197.024 10.8399V21.9304C197.024 22.8726 197.319 23.6391 197.91 24.23C198.501 24.8208 199.283 25.1163 200.257 25.1163C201.231 25.1163 202.014 24.8208 202.605 24.23C203.196 23.6391 203.491 22.8726 203.491 21.9304V10.8399C203.491 10.76 203.515 10.6962 203.563 10.6482C203.627 10.5844 203.699 10.5524 203.778 10.5524H205.982C206.062 10.5524 206.126 10.5844 206.174 10.6482C206.238 10.6962 206.27 10.76 206.27 10.8399V21.8825C206.27 23.0004 206.022 23.9904 205.527 24.8528C205.032 25.6991 204.329 26.3539 203.419 26.817C202.509 27.2801 201.455 27.5116 200.257 27.5116ZM220.947 12.6604C220.947 12.7402 220.915 12.8121 220.851 12.8759C220.803 12.9238 220.739 12.9478 220.66 12.9478H212.515C212.436 12.9478 212.396 12.9877 212.396 13.0676V17.5469C212.396 17.6267 212.436 17.6667 212.515 17.6667H218.001C218.081 17.6667 218.144 17.6986 218.192 17.7625C218.256 17.8104 218.288 17.8743 218.288 17.9541V19.7746C218.288 19.8544 218.256 19.9263 218.192 19.9902C218.144 20.0381 218.081 20.062 218.001 20.062H212.515C212.436 20.062 212.396 20.102 212.396 20.1818V27.0326C212.396 27.1124 212.364 27.1843 212.3 27.2481C212.252 27.296 212.188 27.32 212.108 27.32H209.904C209.825 27.32 209.753 27.296 209.689 27.2481C209.641 27.1843 209.617 27.1124 209.617 27.0326V10.8399C209.617 10.76 209.641 10.6962 209.689 10.6482C209.753 10.5844 209.825 10.5524 209.904 10.5524H220.66C220.739 10.5524 220.803 10.5844 220.851 10.6482C220.915 10.6962 220.947 10.76 220.947 10.8399V12.6604ZM228.673 27.5116C227.475 27.5116 226.421 27.2801 225.511 26.817C224.601 26.3379 223.898 25.6752 223.403 24.8288C222.908 23.9825 222.66 23.0004 222.66 21.8825V15.966C222.66 14.8481 222.908 13.866 223.403 13.0197C223.898 12.1733 224.601 11.5186 225.511 11.0555C226.421 10.5924 227.475 10.3608 228.673 10.3608C229.854 10.3608 230.9 10.5844 231.811 11.0315C232.721 11.4786 233.423 12.1094 233.919 12.9238C234.414 13.7383 234.661 14.6804 234.661 15.7504C234.661 15.8302 234.629 15.9021 234.565 15.966C234.517 16.0139 234.453 16.0378 234.374 16.0378L232.17 16.1576C231.978 16.1576 231.882 16.0698 231.882 15.8941C231.882 14.9519 231.587 14.1934 230.996 13.6185C230.421 13.0436 229.647 12.7562 228.673 12.7562C227.699 12.7562 226.916 13.0436 226.325 13.6185C225.734 14.1934 225.439 14.9519 225.439 15.8941V22.0023C225.439 22.9285 225.734 23.679 226.325 24.2539C226.916 24.8288 227.699 25.1163 228.673 25.1163C229.647 25.1163 230.421 24.8368 230.996 24.2779C231.587 23.703 231.882 22.9445 231.882 22.0023C231.882 21.8266 231.978 21.7388 232.17 21.7388L234.374 21.8346C234.453 21.8346 234.517 21.8586 234.565 21.9065C234.629 21.9544 234.661 22.0103 234.661 22.0741C234.661 23.16 234.414 24.1182 233.919 24.9486C233.423 25.763 232.721 26.3938 231.811 26.8409C230.9 27.2881 229.854 27.5116 228.673 27.5116ZM243.246 27.5116C242.048 27.5116 240.994 27.2801 240.084 26.817C239.174 26.3379 238.471 25.6672 237.976 24.8049C237.481 23.9425 237.234 22.9524 237.234 21.8346V16.0378C237.234 14.904 237.481 13.9139 237.976 13.0676C238.471 12.2052 239.174 11.5425 240.084 11.0794C240.994 10.6003 242.048 10.3608 243.246 10.3608C244.428 10.3608 245.466 10.5924 246.36 11.0555C247.27 11.5186 247.973 12.1493 248.468 12.9478C248.963 13.7463 249.211 14.6485 249.211 15.6546V15.8462C249.211 15.926 249.179 15.9979 249.115 16.0618C249.067 16.1097 249.003 16.1336 248.923 16.1336H246.743C246.663 16.1336 246.592 16.1097 246.528 16.0618C246.48 15.9979 246.456 15.926 246.456 15.8462V15.7264C246.456 14.8641 246.16 14.1535 245.57 13.5945C244.995 13.0356 244.22 12.7562 243.246 12.7562C242.272 12.7562 241.489 13.0516 240.899 13.6425C240.308 14.2173 240.012 14.9839 240.012 15.942V21.9304C240.012 22.8886 240.324 23.6631 240.946 24.2539C241.569 24.8288 242.376 25.1163 243.366 25.1163C244.324 25.1163 245.075 24.8687 245.617 24.3737C246.176 23.8627 246.456 23.168 246.456 22.2897V20.8046C246.456 20.7248 246.416 20.6848 246.336 20.6848H243.39C243.31 20.6848 243.238 20.6609 243.174 20.613C243.126 20.5491 243.102 20.4772 243.102 20.3974V18.6248C243.102 18.545 243.126 18.4811 243.174 18.4332C243.238 18.3693 243.31 18.3374 243.39 18.3374H248.923C249.003 18.3374 249.067 18.3693 249.115 18.4332C249.179 18.4811 249.211 18.545 249.211 18.6248V21.6909C249.211 23.5273 248.668 24.9566 247.582 25.9786C246.512 27.0006 245.067 27.5116 243.246 27.5116Z" fill="#6FADC6"/>
</svg>
