<svg width="147" height="23" viewBox="0 0 147 23" fill="none" xmlns="http://www.w3.org/2000/svg">
<path d="M105.439 2.48375C104.326 2.48375 103.585 2.48375 102.472 2.66914C97.0959 4.70845 95.6823 8.65496 95.7996 12.0306C95.8828 16.358 97.8642 18.1964 100.804 20.096C102.277 20.524 102.194 21.0229 104.882 21.0229C107.571 21.0229 107.868 20.4397 109.146 18.4275V12.4949C109.146 12.4949 109.332 10.0848 108.034 8.78707" stroke="#BEE7F8" stroke-width="3.35747" stroke-linejoin="round"/>
<path d="M78.418 2.68304C77.2557 2.78644 76.6933 3.02771 76.3933 3.54472C76.0184 4.1996 76.0559 4.23407 76.8432 4.06173C77.3306 3.92386 78.193 3.82046 78.7554 3.82046C79.3928 3.82046 79.9177 3.54472 80.1801 3.13111C80.4051 2.75197 80.4426 2.47623 80.2926 2.5107C80.1427 2.54517 79.2803 2.6141 78.418 2.68304Z" fill="#4B9DEA"/>
<path d="M3.13123 5.50936C2.7188 5.68169 1.96893 6.23317 1.44403 6.75018C0.656665 7.50846 0.506691 7.99101 0.506691 9.74884C0.506691 11.679 0.581678 11.8858 1.89395 12.9888C3.13123 14.0228 3.54365 14.1607 5.38083 14.1607C6.76809 14.1607 7.44297 14.0228 7.48046 13.7126C7.48046 13.5058 7.55545 12.713 7.63043 11.9892C7.78041 10.7829 7.74291 10.7484 7.03054 11.0931C4.93091 12.1271 2.7188 10.1969 4.25603 8.64589C4.9684 7.92207 6.50563 7.71527 6.88057 8.30121C7.40547 9.09396 7.66793 8.54248 7.44297 6.99145L7.2555 5.37149L5.5683 5.30255C4.63096 5.26809 3.54365 5.37149 3.13123 5.50936Z" fill="#4B9DEA"/>
<path d="M10.5549 5.8885C7.74291 7.43953 7.40547 10.9897 9.84254 13.0232C11.0048 13.9883 11.4548 14.1607 13.1045 14.1607C16.3289 14.1607 18.316 12.4373 18.316 9.61097C18.2786 6.16424 13.8543 4.02726 10.5549 5.8885ZM14.3417 8.50802C15.5415 9.61097 14.6417 11.5756 13.067 11.3343C11.7547 11.162 11.1923 9.61097 12.1296 8.64589C12.9545 7.81867 13.5544 7.7842 14.3417 8.50802Z" fill="#4B9DEA"/>
<path d="M20.0032 5.61276C19.8533 5.9919 18.316 13.7126 18.316 14.0573C18.316 14.1262 19.0659 14.1607 19.9657 14.1607H21.6155L21.9529 11.8169L22.2903 9.50757L23.0402 11.7479C23.6776 13.7126 23.9026 13.9883 24.7649 14.0917C25.6647 14.1951 25.8147 14.0573 26.4146 12.196C27.3145 9.4731 27.6894 9.19736 27.6894 11.2999C27.6894 13.8505 27.9143 14.1607 29.6015 14.1607C31.0263 14.1607 31.0638 14.1262 31.0263 13.0232C31.0263 12.4373 30.7263 10.4382 30.3889 8.64589L29.7515 5.37149L28.0268 5.26809L26.3021 5.16468L25.5523 7.474L24.8399 9.74884L24.165 7.474L23.4901 5.19915H21.8404C20.8281 5.19915 20.1157 5.37149 20.0032 5.61276Z" fill="#4B9DEA"/>
<path d="M31.7012 5.44042C31.5512 5.54383 31.4387 7.5774 31.4387 9.92118V14.1607H33.0884C34.7382 14.1607 34.7756 14.1607 34.8881 12.8509C35.0006 11.6101 35.0381 11.5756 36.7253 11.4033C39.0874 11.1275 39.6873 10.6105 39.6873 8.74929C39.6873 6.71572 39.1999 5.9919 37.5127 5.54383C35.9754 5.16469 32.0761 5.06128 31.7012 5.44042ZM36.0879 7.81867C37.1377 8.19781 36.5753 9.33523 35.338 9.33523C35.2631 9.33523 35.1881 8.95609 35.1881 8.47355C35.1881 7.54293 35.2256 7.50846 36.0879 7.81867Z" fill="#4B9DEA"/>
<path d="M40.4371 8.68035C40.4371 12.0582 40.4746 12.1616 41.5244 13.1611C42.4993 14.0228 42.9117 14.1607 44.7489 14.1607C46.586 14.1607 46.9985 14.0228 47.9733 13.1611C49.0231 12.1616 49.0606 12.0582 49.0606 8.68035V5.19915H47.3734H45.7237L45.6112 8.19781C45.4987 11.0586 45.4612 11.2309 44.6739 11.3343C43.849 11.4377 43.8115 11.3688 43.8115 8.33568V5.19915H42.1243H40.4371V8.68035Z" fill="#4B9DEA"/>
<path d="M49.698 5.40596C49.548 5.54382 49.4355 6.26764 49.4355 6.99145C49.4355 8.16334 49.548 8.30121 50.3729 8.30121C51.3102 8.30121 51.3102 8.33568 51.3102 11.2309V14.1607H53.1849H55.0596V11.2309C55.0596 8.30121 55.0596 8.30121 56.0344 8.30121C56.8967 8.30121 56.9717 8.19781 56.8592 6.81912L56.7468 5.37149L53.3724 5.26809C51.4977 5.23362 49.848 5.26809 49.698 5.40596Z" fill="#4B9DEA"/>
<path d="M58.9964 5.61276C58.8839 5.85403 58.134 7.81867 57.3092 9.95565C56.4843 12.1271 55.8094 13.9539 55.8094 14.0228C55.8094 14.0917 56.6718 14.1607 57.6841 14.1607C59.1088 14.1607 59.5588 14.0228 59.5588 13.6437C59.5588 13.2645 59.9712 13.1266 61.0585 13.1266C62.1458 13.1266 62.5582 13.2645 62.5582 13.6437C62.5582 14.0228 63.0081 14.1607 64.4329 14.1607H66.2701L64.8078 10.2659C64.0205 8.16334 63.2331 6.12977 63.1206 5.7851C62.8957 5.33702 62.4083 5.19915 61.021 5.19915C59.8587 5.19915 59.1088 5.37149 58.9964 5.61276ZM61.4334 10.2659C61.4334 10.7829 61.2085 11.0586 60.8335 11.0586C60.3836 11.0586 60.2711 10.8518 60.4586 10.2659C60.5711 9.85224 60.6836 9.2663 60.6836 8.99056C60.7211 8.12888 61.4334 9.3697 61.4334 10.2659Z" fill="#4B9DEA"/>
<path d="M67.9198 5.8885C66.2326 6.81912 65.4452 8.40462 65.6702 10.2659C65.8577 11.9548 67.3199 13.6781 68.8196 14.0228C69.3445 14.1607 69.682 14.5053 69.682 14.8845C69.682 15.2291 69.9444 15.5394 70.2444 15.5394C70.5443 15.5394 70.8068 15.7117 70.8068 15.9185C70.8068 16.1598 70.3569 16.2632 69.682 16.1598C68.8946 16.0564 68.5572 16.1598 68.5572 16.47C68.5572 16.8146 68.9696 16.918 70.1694 16.8491C71.5566 16.7457 71.7441 16.6423 71.8566 15.8496C71.9316 15.2291 71.7441 14.85 71.1067 14.5743C70.2819 14.2296 70.3194 14.1951 71.5566 14.1607C72.269 14.1262 73.7688 14.1262 74.8561 14.1607C76.3933 14.1951 76.8057 14.0917 76.8057 13.6781C76.8057 13.2645 77.1807 13.1266 78.3055 13.1266C79.3928 13.1266 79.8052 13.2645 79.8052 13.6437C79.8052 14.0228 80.2551 14.1607 81.7174 14.1607C83.892 14.1607 83.892 14.7466 81.6799 8.99056L80.2926 5.37149L78.4179 5.26809L76.5433 5.16469L74.8936 9.3697C73.3563 13.3334 73.2439 13.5058 73.1314 12.1616C73.0189 10.8173 72.9814 10.7484 72.119 11.1275C70.0569 11.9892 68.3322 10.4037 69.532 8.74929C70.1319 7.88761 71.1817 7.74974 72.344 8.30121C72.9814 8.64589 73.0564 8.54249 73.0564 7.12932C73.0564 6.06084 72.8689 5.54383 72.4565 5.40596C71.2942 4.99235 69.0821 5.19915 67.9198 5.8885ZM78.8304 10.0935C79.0178 10.9207 78.9428 11.0586 78.3055 11.0586C77.4431 11.0586 77.4431 11.0586 77.9305 9.81778C78.3804 8.74929 78.4929 8.78376 78.8304 10.0935Z" fill="#4B9DEA"/>
<path d="M85.5792 5.54383C84.0419 6.0953 82.8047 7.88761 82.8047 9.54204C82.8047 12.6096 84.5668 14.1607 88.0912 14.1607C89.7409 14.1607 90.1534 14.0228 91.2407 13.0232C93.5653 10.8863 93.3028 7.5774 90.7158 5.9919C89.4035 5.16469 87.1164 4.95788 85.5792 5.54383ZM89.0286 8.81822C89.591 9.61097 89.591 9.74884 89.0286 10.5416C87.9787 12.0237 86.1791 11.4722 86.1791 9.61097C86.1791 7.95654 88.0537 7.43953 89.0286 8.81822Z" fill="#4B9DEA"/>
<path d="M105.439 15.832C104.141 15.832 102.843 15.4612 101.916 14.3488C100.989 13.2365 100.989 12.1241 100.989 11.3826C100.989 10.641 101.731 9.52864 102.287 8.97247C102.843 8.41629 104.882 7.86011 104.882 7.86011L107.292 8.2309L108.219 8.97247" stroke="#4B9DEA" stroke-width="3.35747" stroke-linejoin="round"/>
<path d="M116.526 16.7802C115.841 16.7802 115.235 16.646 114.708 16.3777C114.18 16.1094 113.769 15.7301 113.473 15.2398C113.186 14.7402 113.042 14.1666 113.042 13.5189V7.12138C113.042 7.07512 113.056 7.03812 113.084 7.01036C113.121 6.97335 113.163 6.95485 113.209 6.95485H114.486C114.532 6.95485 114.569 6.97335 114.597 7.01036C114.634 7.03812 114.652 7.07512 114.652 7.12138V13.5467C114.652 14.0925 114.823 14.5366 115.166 14.8789C115.508 15.2212 115.961 15.3924 116.526 15.3924C117.09 15.3924 117.543 15.2212 117.886 14.8789C118.228 14.5366 118.399 14.0925 118.399 13.5467V7.12138C118.399 7.07512 118.413 7.03812 118.441 7.01036C118.478 6.97335 118.519 6.95485 118.566 6.95485H119.842C119.889 6.95485 119.926 6.97335 119.953 7.01036C119.99 7.03812 120.009 7.07512 120.009 7.12138V13.5189C120.009 14.1666 119.866 14.7402 119.579 15.2398C119.292 15.7301 118.885 16.1094 118.358 16.3777C117.83 16.646 117.22 16.7802 116.526 16.7802ZM128.512 8.17608C128.512 8.22233 128.494 8.26397 128.457 8.30097C128.429 8.32873 128.392 8.34261 128.346 8.34261H123.627C123.581 8.34261 123.558 8.36574 123.558 8.41199V11.0071C123.558 11.0534 123.581 11.0765 123.627 11.0765H126.805C126.852 11.0765 126.889 11.095 126.916 11.132C126.953 11.1598 126.972 11.1968 126.972 11.243V12.2977C126.972 12.344 126.953 12.3856 126.916 12.4226C126.889 12.4504 126.852 12.4642 126.805 12.4642H123.627C123.581 12.4642 123.558 12.4874 123.558 12.5336V16.5026C123.558 16.5489 123.54 16.5905 123.503 16.6275C123.475 16.6553 123.438 16.6691 123.392 16.6691H122.115C122.069 16.6691 122.027 16.6553 121.99 16.6275C121.962 16.5905 121.948 16.5489 121.948 16.5026V7.12138C121.948 7.07512 121.962 7.03812 121.99 7.01036C122.027 6.97335 122.069 6.95485 122.115 6.95485H128.346C128.392 6.95485 128.429 6.97335 128.457 7.01036C128.494 7.03812 128.512 7.07512 128.512 7.12138V8.17608ZM132.988 16.7802C132.294 16.7802 131.684 16.646 131.156 16.3777C130.629 16.1002 130.222 15.7162 129.935 15.2259C129.648 14.7355 129.505 14.1666 129.505 13.5189V10.0912C129.505 9.44356 129.648 8.87458 129.935 8.38424C130.222 7.8939 130.629 7.51458 131.156 7.24628C131.684 6.97798 132.294 6.84383 132.988 6.84383C133.673 6.84383 134.279 6.97335 134.806 7.2324C135.334 7.49145 135.741 7.85689 136.027 8.32873C136.314 8.80057 136.458 9.34642 136.458 9.96628C136.458 10.0125 136.439 10.0542 136.402 10.0912C136.374 10.1189 136.337 10.1328 136.291 10.1328L135.014 10.2022C134.903 10.2022 134.848 10.1513 134.848 10.0495C134.848 9.5037 134.677 9.06424 134.334 8.73118C134.001 8.39812 133.553 8.23159 132.988 8.23159C132.424 8.23159 131.971 8.39812 131.628 8.73118C131.286 9.06424 131.115 9.5037 131.115 10.0495V13.5883C131.115 14.1249 131.286 14.5598 131.628 14.8928C131.971 15.2259 132.424 15.3924 132.988 15.3924C133.553 15.3924 134.001 15.2305 134.334 14.9067C134.677 14.5736 134.848 14.1342 134.848 13.5883C134.848 13.4866 134.903 13.4357 135.014 13.4357L136.291 13.4912C136.337 13.4912 136.374 13.5051 136.402 13.5328C136.439 13.5606 136.458 13.5929 136.458 13.63C136.458 14.2591 136.314 14.8142 136.027 15.2953C135.741 15.7671 135.334 16.1325 134.806 16.3916C134.279 16.6506 133.673 16.7802 132.988 16.7802ZM141.431 16.7802C140.737 16.7802 140.127 16.646 139.599 16.3777C139.072 16.1002 138.665 15.7116 138.378 15.212C138.091 14.7124 137.948 14.1388 137.948 13.4912V10.1328C137.948 9.47594 138.091 8.90233 138.378 8.41199C138.665 7.9124 139.072 7.52846 139.599 7.26016C140.127 6.98261 140.737 6.84383 141.431 6.84383C142.116 6.84383 142.717 6.97798 143.235 7.24628C143.763 7.51458 144.17 7.88002 144.457 8.34261C144.743 8.80519 144.887 9.32791 144.887 9.91077V10.0218C144.887 10.068 144.868 10.1097 144.831 10.1467C144.804 10.1744 144.767 10.1883 144.72 10.1883H143.457C143.411 10.1883 143.37 10.1744 143.333 10.1467C143.305 10.1097 143.291 10.068 143.291 10.0218V9.9524C143.291 9.45281 143.12 9.04111 142.777 8.7173C142.444 8.39349 141.996 8.23159 141.431 8.23159C140.867 8.23159 140.414 8.40274 140.071 8.74506C139.729 9.07812 139.558 9.5222 139.558 10.0773V13.5467C139.558 14.1018 139.738 14.5505 140.099 14.8928C140.46 15.2259 140.927 15.3924 141.501 15.3924C142.056 15.3924 142.491 15.249 142.805 14.9622C143.129 14.6661 143.291 14.2637 143.291 13.7549V12.8944C143.291 12.8482 143.268 12.8251 143.221 12.8251H141.515C141.468 12.8251 141.427 12.8112 141.39 12.7834C141.362 12.7464 141.348 12.7048 141.348 12.6585V11.6316C141.348 11.5853 141.362 11.5483 141.39 11.5206C141.427 11.4836 141.468 11.4651 141.515 11.4651H144.72C144.767 11.4651 144.804 11.4836 144.831 11.5206C144.868 11.5483 144.887 11.5853 144.887 11.6316V13.4079C144.887 14.4719 144.572 15.2999 143.943 15.892C143.323 16.4841 142.486 16.7802 141.431 16.7802Z" fill="#BEE7F8"/>
</svg>
