<svg width="78" height="89" viewBox="0 0 78 89" fill="none" xmlns="http://www.w3.org/2000/svg">
<path d="M35.6557 84.8686C36.6498 85.436 37.1468 85.7199 37.8481 85.8671C38.3928 85.9814 39.1866 85.9814 39.7312 85.8671C40.4325 85.7199 40.9296 85.436 41.9237 84.8686C50.6701 79.874 74.7094 64.1848 74.7094 42.6137V18.8822C74.7094 16.4303 74.7094 15.2043 74.2271 14.2699C73.7997 13.4414 73.132 12.7802 72.2906 12.352C71.3419 11.8691 70.0681 11.8543 67.52 11.8248C54.1777 11.6704 46.4837 10.592 38.7897 3.06119C31.0957 10.592 23.4016 11.6704 10.0593 11.8248C7.51139 11.8543 6.23741 11.8691 5.2885 12.352C4.44726 12.7802 3.7796 13.4414 3.35216 14.2699C2.86998 15.2043 2.86998 16.4303 2.86998 18.8822V42.6137C2.86998 64.1848 26.9091 79.874 35.6557 84.8686Z" stroke="#CE96F5" stroke-width="5.52611" stroke-linecap="round" stroke-linejoin="round"/>
<path d="M52.6036 26.591C52.5988 25.8027 52.0145 25.1656 51.2928 25.1656C51.1388 25.1656 50.9931 25.2002 50.8556 25.2536V25.2506L50.8054 25.2709C50.7958 25.2754 50.7855 25.2784 50.7759 25.283L17.5967 38.4833C17.5685 38.4946 17.5403 38.5066 17.5135 38.5187C17.5101 38.5202 17.5087 38.5232 17.5053 38.5247C17.0248 38.7376 16.6852 39.2513 16.6852 39.8538C16.6852 39.856 16.6852 39.8583 16.6852 39.8605V43.6424H16.6873C16.6873 43.6484 16.6852 43.6544 16.6852 43.6612C16.6852 44.2885 17.055 44.8158 17.5671 45.0113C17.5781 45.0173 17.585 45.0256 17.598 45.0301L50.8543 58.241L50.8556 58.2343C50.9931 58.2877 51.1388 58.3223 51.2935 58.3223C52.0179 58.3223 52.6049 57.6799 52.6049 56.8871C52.6049 56.8781 52.6029 56.8698 52.6029 56.8616H52.6049V26.591H52.6042H52.6036Z" fill="#CE96F5"/>
</svg>
