<svg width="134" height="153" viewBox="0 0 134 153" fill="none" xmlns="http://www.w3.org/2000/svg">
<path d="M61.5905 146.206C63.3064 147.185 64.1643 147.675 65.3748 147.929C66.3149 148.126 67.6851 148.126 68.6252 147.929C69.8357 147.675 70.6936 147.185 72.4095 146.206C87.5065 137.584 129 110.504 129 73.2706V32.3082C129 28.076 129 25.9598 128.168 24.347C127.43 22.9171 126.277 21.7757 124.825 21.0367C123.188 20.203 120.989 20.1776 116.591 20.1267C93.5608 19.8602 80.2804 17.9988 67 5C53.7196 17.9988 40.4391 19.8602 17.4093 20.1267C13.0114 20.1776 10.8124 20.203 9.17454 21.0367C7.7225 21.7757 6.57007 22.9171 5.83227 24.347C5 25.9598 5 28.076 5 32.3082V73.2706C5 110.504 46.4932 137.584 61.5905 146.206Z" stroke="#810DD0" stroke-width="9.53846" stroke-linecap="round" stroke-linejoin="round"/>
<path d="M90.8438 45.6141C90.8355 44.2535 89.827 43.1539 88.5813 43.1539C88.3155 43.1539 88.064 43.2136 87.8267 43.3058V43.3006L87.7401 43.3356C87.7235 43.3434 87.7057 43.3486 87.6891 43.3564L30.4193 66.1412C30.3707 66.1607 30.3221 66.1814 30.2758 66.2022C30.2699 66.2048 30.2675 66.21 30.2616 66.2126C29.4322 66.58 28.8462 67.4667 28.8462 68.5067C28.8462 68.5106 28.8462 68.5145 28.8462 68.5183V75.0461H28.8497C28.8497 75.0565 28.8462 75.0669 28.8462 75.0786C28.8462 76.1613 29.4845 77.0714 30.3683 77.409C30.3873 77.4194 30.3992 77.4336 30.4217 77.4414L87.8243 100.244L87.8267 100.233C88.064 100.325 88.3155 100.385 88.5825 100.385C89.833 100.385 90.8462 99.2759 90.8462 97.9075C90.8462 97.8919 90.8426 97.8776 90.8426 97.8634H90.8462V45.6141H90.845H90.8438Z" fill="#810DD0"/>
</svg>
