<svg width="204" height="29" viewBox="0 0 204 29" fill="none" xmlns="http://www.w3.org/2000/svg">
<path d="M0.80674 22.0922V1.5412H3.63432L15.5568 16.9617H14.7989V1.5412H18.2969V22.0922H15.4694L3.57602 6.67166H4.30478V22.0922H0.80674ZM27.8257 22.3837C26.0184 22.3837 24.6677 21.8881 23.7738 20.897C22.8799 19.9059 22.4329 18.3901 22.4329 16.3496V7.37127H26.0767V16.3204C26.0767 17.4087 26.3002 18.2152 26.7471 18.7399C27.1941 19.2452 27.8743 19.4978 28.7877 19.4978C29.8176 19.4978 30.6533 19.148 31.2946 18.4484C31.9553 17.7488 32.2857 16.8257 32.2857 15.6791V7.37127H35.9295V22.0922H32.3732V19.0897H32.7813C32.3537 20.1391 31.7027 20.9553 30.8282 21.5383C29.9731 22.1019 28.9723 22.3837 27.8257 22.3837ZM37.9031 22.0922L47.202 1.5412H50.3503L59.7658 22.0922H55.9471L53.4402 16.3204L54.956 17.3407H42.6254L44.1995 16.3204L41.6926 22.0922H37.9031ZM48.747 5.56394L44.6368 15.3002L43.8789 14.3965H53.6734L53.0612 15.3002L48.8636 5.56394H48.747ZM61.748 28.3887V11.0442C61.748 10.4418 61.7286 9.82961 61.6897 9.20774C61.6509 8.58586 61.5926 7.97371 61.5148 7.37127H65.042L65.3627 10.4612H65.042C65.3335 9.43122 65.9457 8.61502 66.8785 8.01257C67.8308 7.3907 68.9288 7.07976 70.1725 7.07976C71.4745 7.07976 72.6114 7.3907 73.5831 8.01257C74.5548 8.61502 75.3127 9.48953 75.8568 10.6361C76.401 11.7633 76.673 13.1236 76.673 14.7172C76.673 16.3107 76.401 17.6808 75.8568 18.8274C75.3127 19.9739 74.5548 20.8582 73.5831 21.48C72.6114 22.0825 71.4745 22.3837 70.1725 22.3837C68.9482 22.3837 67.8696 22.0825 66.9368 21.48C66.004 20.8776 65.3821 20.0711 65.0712 19.0606H65.3918V28.3887H61.748ZM69.1522 19.5853C70.3183 19.5853 71.2511 19.1869 71.9507 18.3901C72.6503 17.5739 73.0001 16.3496 73.0001 14.7172C73.0001 13.0847 72.6503 11.8701 71.9507 11.0734C71.2511 10.2766 70.3183 9.8782 69.1522 9.8782C68.0057 9.8782 67.0826 10.2766 66.383 11.0734C65.6833 11.8701 65.3335 13.0847 65.3335 14.7172C65.3335 16.3496 65.6833 17.5739 66.383 18.3901C67.0826 19.1869 68.0057 19.5853 69.1522 19.5853ZM79.8247 28.3887V11.0442C79.8247 10.4418 79.8053 9.82961 79.7664 9.20774C79.7275 8.58586 79.6692 7.97371 79.5915 7.37127H83.1187L83.4393 10.4612H83.1187C83.4102 9.43122 84.0223 8.61502 84.9551 8.01257C85.9074 7.3907 87.0054 7.07976 88.2491 7.07976C89.5512 7.07976 90.688 7.3907 91.6597 8.01257C92.6314 8.61502 93.3893 9.48953 93.9335 10.6361C94.4776 11.7633 94.7497 13.1236 94.7497 14.7172C94.7497 16.3107 94.4776 17.6808 93.9335 18.8274C93.3893 19.9739 92.6314 20.8582 91.6597 21.48C90.688 22.0825 89.5512 22.3837 88.2491 22.3837C87.0248 22.3837 85.9463 22.0825 85.0134 21.48C84.0806 20.8776 83.4588 20.0711 83.1478 19.0606H83.4685V28.3887H79.8247ZM87.2289 19.5853C88.3949 19.5853 89.3277 19.1869 90.0273 18.3901C90.7269 17.5739 91.0767 16.3496 91.0767 14.7172C91.0767 13.0847 90.7269 11.8701 90.0273 11.0734C89.3277 10.2766 88.3949 9.8782 87.2289 9.8782C86.0823 9.8782 85.1592 10.2766 84.4596 11.0734C83.76 11.8701 83.4102 13.0847 83.4102 14.7172C83.4102 16.3496 83.76 17.5739 84.4596 18.3901C85.1592 19.1869 86.0823 19.5853 87.2289 19.5853ZM98.1928 22.0922V1.5412H111.748V4.48538H101.953V10.3155H111.077V13.2596H101.953V22.0922H98.1928ZM114.583 22.0922V7.37127H118.227V22.0922H114.583ZM114.379 4.60198V1.04564H118.431V4.60198H114.379ZM122.155 22.0922V11.1317C122.155 10.5098 122.135 9.8782 122.096 9.23689C122.077 8.59558 122.028 7.97371 121.951 7.37127H125.478L125.886 11.394H125.303C125.497 10.4223 125.818 9.61584 126.265 8.97454C126.731 8.33323 127.295 7.85711 127.956 7.54617C128.616 7.23523 129.335 7.07976 130.113 7.07976C130.462 7.07976 130.744 7.0992 130.958 7.13806C131.172 7.1575 131.386 7.20608 131.599 7.28382L131.57 10.4904C131.201 10.3349 130.88 10.2377 130.608 10.1989C130.356 10.16 130.035 10.1405 129.646 10.1405C128.811 10.1405 128.101 10.3155 127.518 10.6653C126.955 11.0151 126.527 11.5009 126.236 12.1228C125.964 12.7446 125.828 13.454 125.828 14.2507V22.0922H122.155ZM140.513 22.3837C138.044 22.3837 136.111 21.7035 134.712 20.3432C133.312 18.9828 132.613 17.1172 132.613 14.7463C132.613 13.2111 132.914 11.8701 133.516 10.7236C134.119 9.57698 134.955 8.68303 136.023 8.04172C137.112 7.40042 138.375 7.07976 139.813 7.07976C141.232 7.07976 142.417 7.38098 143.369 7.98342C144.321 8.58586 145.041 9.43123 145.526 10.5195C146.032 11.6078 146.284 12.8807 146.284 14.3382V15.3002H135.557V13.3762H143.69L143.194 13.7843C143.194 12.424 142.903 11.3843 142.32 10.6653C141.756 9.94621 140.93 9.58669 139.842 9.58669C138.637 9.58669 137.704 10.0142 137.044 10.8693C136.402 11.7244 136.082 12.9195 136.082 14.4548V14.8338C136.082 16.4273 136.47 17.6225 137.248 18.4192C138.044 19.1966 139.162 19.5853 140.6 19.5853C141.436 19.5853 142.213 19.4784 142.932 19.2646C143.67 19.0314 144.37 18.6622 145.031 18.1569L146.109 20.6055C145.41 21.1691 144.574 21.6064 143.602 21.9173C142.631 22.2282 141.601 22.3837 140.513 22.3837ZM153.223 22.0922L147.481 7.37127H151.241L155.38 18.8274H154.622L158.82 7.37127H161.414L165.583 18.8274H164.912L169.023 7.37127H172.579L166.836 22.0922H163.63L159.228 10.3738H160.773L156.459 22.0922H153.223ZM180.276 22.3837C178.993 22.3837 177.866 22.0825 176.895 21.48C175.923 20.8582 175.165 19.9739 174.621 18.8274C174.077 17.6808 173.805 16.3107 173.805 14.7172C173.805 13.1236 174.077 11.7633 174.621 10.6361C175.165 9.48953 175.923 8.61502 176.895 8.01257C177.866 7.3907 178.993 7.07976 180.276 7.07976C181.52 7.07976 182.608 7.3907 183.541 8.01257C184.493 8.61502 185.125 9.43122 185.436 10.4612H185.115L185.436 7.37127H188.934C188.875 7.97371 188.817 8.58586 188.759 9.20774C188.72 9.82961 188.701 10.4418 188.701 11.0442V22.0922H185.086L185.057 19.0606H185.407C185.096 20.0711 184.464 20.8776 183.512 21.48C182.56 22.0825 181.481 22.3837 180.276 22.3837ZM181.296 19.5853C182.443 19.5853 183.366 19.1869 184.066 18.3901C184.765 17.5739 185.115 16.3496 185.115 14.7172C185.115 13.0847 184.765 11.8701 184.066 11.0734C183.366 10.2766 182.443 9.8782 181.296 9.8782C180.15 9.8782 179.227 10.2766 178.527 11.0734C177.827 11.8701 177.478 13.0847 177.478 14.7172C177.478 16.3496 177.818 17.5739 178.498 18.3901C179.198 19.1869 180.13 19.5853 181.296 19.5853ZM192.668 22.0922V0.637535H196.312V22.0922H192.668ZM200.269 22.0922V0.637535H203.913V22.0922H200.269Z" fill="#CE96F5"/>
</svg>
