<svg width="352" height="49" viewBox="0 0 352 49" fill="none" xmlns="http://www.w3.org/2000/svg">
<path d="M0.970059 38V2.52749H5.85067L26.4298 29.1445H25.1216V2.52749H31.1594V38H26.2788L5.75004 11.383H7.00793V38H0.970059ZM47.6067 38.5032C44.4872 38.5032 42.1559 37.6478 40.6129 35.9371C39.0699 34.2263 38.2984 31.6099 38.2984 28.0878V12.5906H44.5878V28.0375C44.5878 29.916 44.9736 31.308 45.7451 32.2137C46.5166 33.0858 47.6906 33.5219 49.2672 33.5219C51.045 33.5219 52.4874 32.9181 53.5943 31.7105C54.7348 30.503 55.305 28.9096 55.305 26.9306V12.5906H61.5945V38H55.456V32.8175H56.1604C55.4224 34.6289 54.2987 36.0377 52.7892 37.044C51.3133 38.0168 49.5858 38.5032 47.6067 38.5032ZM65.001 38L81.0517 2.52749H86.4858L102.738 38H96.1464L91.8192 28.0375L94.4356 29.7986H73.1521L75.8692 28.0375L71.542 38H65.001ZM83.7184 9.47104L76.6239 26.2765L75.3157 24.7167H92.2218L91.1651 26.2765L83.9197 9.47104H83.7184ZM106.159 48.8682V18.9304C106.159 17.8905 106.126 16.8339 106.059 15.7605C105.991 14.6871 105.891 13.6305 105.757 12.5906H111.845L112.398 17.9241H111.845C112.348 16.1462 113.405 14.7374 115.015 13.6976C116.658 12.6242 118.554 12.0875 120.7 12.0875C122.948 12.0875 124.91 12.6242 126.587 13.6976C128.265 14.7374 129.573 16.2469 130.512 18.226C131.451 20.1715 131.921 22.5196 131.921 25.2701C131.921 28.0207 131.451 30.3856 130.512 32.3647C129.573 34.3437 128.265 35.87 126.587 36.9434C124.91 37.9832 122.948 38.5032 120.7 38.5032C118.587 38.5032 116.725 37.9832 115.115 36.9434C113.505 35.9035 112.432 34.5115 111.895 32.7672H112.449V48.8682H106.159ZM118.939 33.6729C120.952 33.6729 122.562 32.9852 123.77 31.6099C124.977 30.2011 125.581 28.0878 125.581 25.2701C125.581 22.4525 124.977 20.356 123.77 18.9807C122.562 17.6054 120.952 16.9178 118.939 16.9178C116.96 16.9178 115.367 17.6054 114.159 18.9807C112.952 20.356 112.348 22.4525 112.348 25.2701C112.348 28.0878 112.952 30.2011 114.159 31.6099C115.367 32.9852 116.96 33.6729 118.939 33.6729ZM137.361 48.8682V18.9304C137.361 17.8905 137.327 16.8339 137.26 15.7605C137.193 14.6871 137.092 13.6305 136.958 12.5906H143.046L143.6 17.9241H143.046C143.55 16.1462 144.606 14.7374 146.216 13.6976C147.86 12.6242 149.755 12.0875 151.902 12.0875C154.149 12.0875 156.112 12.6242 157.789 13.6976C159.466 14.7374 160.774 16.2469 161.714 18.226C162.653 20.1715 163.122 22.5196 163.122 25.2701C163.122 28.0207 162.653 30.3856 161.714 32.3647C160.774 34.3437 159.466 35.87 157.789 36.9434C156.112 37.9832 154.149 38.5032 151.902 38.5032C149.789 38.5032 147.927 37.9832 146.317 36.9434C144.707 35.9035 143.633 34.5115 143.097 32.7672H143.65V48.8682H137.361ZM150.141 33.6729C152.154 33.6729 153.764 32.9852 154.971 31.6099C156.179 30.2011 156.783 28.0878 156.783 25.2701C156.783 22.4525 156.179 20.356 154.971 18.9807C153.764 17.6054 152.154 16.9178 150.141 16.9178C148.162 16.9178 146.569 17.6054 145.361 18.9807C144.153 20.356 143.55 22.4525 143.55 25.2701C143.55 28.0878 144.153 30.2011 145.361 31.6099C146.569 32.9852 148.162 33.6729 150.141 33.6729ZM169.065 38V2.52749H192.462V7.60937H175.556V17.6725H191.305V22.7544H175.556V38H169.065ZM197.356 38V12.5906H203.646V38H197.356ZM197.004 7.81063V1.67212H203.998V7.81063H197.004ZM210.425 38V19.0813C210.425 18.0079 210.392 16.9178 210.325 15.8108C210.291 14.7039 210.207 13.6305 210.073 12.5906H216.161L216.866 19.5342H215.859C216.195 17.857 216.748 16.4649 217.52 15.358C218.325 14.251 219.298 13.4292 220.438 12.8925C221.579 12.3558 222.82 12.0875 224.161 12.0875C224.765 12.0875 225.252 12.121 225.621 12.1881C225.99 12.2216 226.359 12.3055 226.728 12.4397L226.677 17.9744C226.04 17.706 225.486 17.5383 225.017 17.4712C224.581 17.4041 224.027 17.3706 223.356 17.3706C221.914 17.3706 220.69 17.6725 219.683 18.2763C218.711 18.8801 217.973 19.7187 217.47 20.7921C217 21.8655 216.765 23.0898 216.765 24.4651V38H210.425ZM242.112 38.5032C237.852 38.5032 234.515 37.3291 232.1 34.9811C229.684 32.633 228.477 29.4128 228.477 25.3205C228.477 22.6705 228.997 20.356 230.037 18.3769C231.076 16.3978 232.519 14.8548 234.364 13.7479C236.242 12.6409 238.423 12.0875 240.905 12.0875C243.353 12.0875 245.4 12.6074 247.043 13.6472C248.687 14.6871 249.928 16.1462 250.767 18.0247C251.639 19.9031 252.075 22.1003 252.075 24.616V26.2765H233.559V22.9556H247.597L246.741 23.66C246.741 21.312 246.238 19.5174 245.232 18.2763C244.259 17.0352 242.834 16.4146 240.955 16.4146C238.875 16.4146 237.265 17.1526 236.125 18.6285C235.018 20.1044 234.464 22.1674 234.464 24.8173V25.4714C234.464 28.222 235.135 30.2849 236.477 31.6602C237.852 33.002 239.781 33.6729 242.263 33.6729C243.706 33.6729 245.047 33.4884 246.289 33.1194C247.563 32.7169 248.771 32.0795 249.911 31.2074L251.773 35.4339C250.565 36.4067 249.123 37.1614 247.446 37.6981C245.769 38.2348 243.991 38.5032 242.112 38.5032ZM264.052 38L254.14 12.5906H260.63L267.775 32.3647H266.467L273.713 12.5906H278.191L285.386 32.3647H284.229L291.323 12.5906H297.462L287.549 38H282.015L274.417 17.7731H277.084L269.637 38H264.052ZM310.747 38.5032C308.533 38.5032 306.588 37.9832 304.911 36.9434C303.233 35.87 301.925 34.3437 300.986 32.3647C300.047 30.3856 299.577 28.0207 299.577 25.2701C299.577 22.5196 300.047 20.1715 300.986 18.226C301.925 16.2469 303.233 14.7374 304.911 13.6976C306.588 12.6242 308.533 12.0875 310.747 12.0875C312.894 12.0875 314.772 12.6242 316.383 13.6976C318.026 14.7374 319.116 16.1462 319.653 17.9241H319.1L319.653 12.5906H325.691C325.59 13.6305 325.49 14.6871 325.389 15.7605C325.322 16.8339 325.288 17.8905 325.288 18.9304V38H319.049L318.999 32.7672H319.603C319.066 34.5115 317.976 35.9035 316.332 36.9434C314.689 37.9832 312.827 38.5032 310.747 38.5032ZM312.508 33.6729C314.487 33.6729 316.081 32.9852 317.288 31.6099C318.496 30.2011 319.1 28.0878 319.1 25.2701C319.1 22.4525 318.496 20.356 317.288 18.9807C316.081 17.6054 314.487 16.9178 312.508 16.9178C310.529 16.9178 308.936 17.6054 307.728 18.9807C306.521 20.356 305.917 22.4525 305.917 25.2701C305.917 28.0878 306.504 30.2011 307.678 31.6099C308.886 32.9852 310.496 33.6729 312.508 33.6729ZM332.137 38V0.967703H338.427V38H332.137ZM345.257 38V0.967703H351.546V38H345.257Z" fill="#810DD0"/>
</svg>
