<svg width="16" height="18" viewBox="0 0 16 18" fill="none" xmlns="http://www.w3.org/2000/svg">
<path d="M7.52835 16.7907C7.72023 16.9002 7.81617 16.955 7.95155 16.9835C8.05667 17.0055 8.2099 17.0055 8.31503 16.9835C8.4504 16.955 8.54634 16.9002 8.73822 16.7907C10.4265 15.8267 15.0666 12.7983 15.0666 8.63456V4.05382C15.0666 3.58054 15.0666 3.34389 14.9735 3.16353C14.891 3.00363 14.7622 2.876 14.5997 2.79335C14.4166 2.70012 14.1707 2.69728 13.6789 2.69159C11.1035 2.66178 9.61841 2.45363 8.13329 1C6.64816 2.45363 5.16304 2.66178 2.58766 2.69159C2.09585 2.69728 1.84994 2.70012 1.66678 2.79335C1.5044 2.876 1.37553 3.00363 1.29302 3.16353C1.19995 3.34389 1.19995 3.58054 1.19995 4.05382V8.63456C1.19995 12.7983 5.84005 15.8267 7.52835 16.7907Z" stroke="white" stroke-width="1.06667" stroke-linecap="round" stroke-linejoin="round"/>
<path d="M10.7998 5.54182C10.7988 5.38966 10.6861 5.26669 10.5468 5.26669C10.517 5.26669 10.4889 5.27337 10.4624 5.28368V5.2831L10.4527 5.28702C10.4508 5.28789 10.4488 5.28847 10.447 5.28934L4.04263 7.83732C4.03719 7.8395 4.03175 7.84182 4.02657 7.84414C4.02591 7.84443 4.02564 7.84502 4.02498 7.84531C3.93224 7.88639 3.8667 7.98555 3.8667 8.10185C3.8667 8.10228 3.8667 8.10272 3.8667 8.10315V8.83314H3.8671C3.8671 8.8343 3.8667 8.83546 3.8667 8.83677C3.8667 8.95785 3.93808 9.05962 4.03692 9.09737C4.03904 9.09853 4.04037 9.10013 4.04289 9.101L10.4621 11.651L10.4624 11.6497C10.4889 11.66 10.517 11.6667 10.5469 11.6667C10.6867 11.6667 10.8 11.5427 10.8 11.3897C10.8 11.3879 10.7996 11.3863 10.7996 11.3847H10.8V5.54182H10.7999H10.7998Z" fill="white"/>
</svg>
